PathFileType	4	(X/Y/Z)	/Users/itak/Documents/Research/Walk-IL/dataset/trc/00206_00008.trc
DataRate	CameraRate	NumFrames	NumMarkers	Units	OrigDataRate	OrigDataStartFrame	OrigNumFrames
100.000000	100.000000	4	53	mm	100.000000	363	582
Frame#	Time	RPSI			LPSI			L3			STRN			T10			C7			CLAV			RBAK			LBAK			LSHO			LUPA			LAEL			LAOL			LWTS			LWPS			LFRA			LIFD			LHPS			LHTS			RSHO			RUPA			RAEL			RAOL			RWTS			RWPS			RFRA			RIFD			RHTS			RHPS			RBHD			LFHD			RFHD			LBHD			LHIP			RHIP			RASI			LASI			LKNE			LTHI			LANK			LTIP			LTOE			LMT1			LMT5			LHEE			RKNE			RTHI			RANK			RTIP			RTOE			RMT1			RMT5			RHEE			
		X1	Y1	Z1	X2	Y2	Z2	X3	Y3	Z3	X4	Y4	Z4	X5	Y5	Z5	X6	Y6	Z6	X7	Y7	Z7	X8	Y8	Z8	X9	Y9	Z9	X10	Y10	Z10	X11	Y11	Z11	X12	Y12	Z12	X13	Y13	Z13	X14	Y14	Z14	X15	Y15	Z15	X16	Y16	Z16	X17	Y17	Z17	X18	Y18	Z18	X19	Y19	Z19	X20	Y20	Z20	X21	Y21	Z21	X22	Y22	Z22	X23	Y23	Z23	X24	Y24	Z24	X25	Y25	Z25	X26	Y26	Z26	X27	Y27	Z27	X28	Y28	Z28	X29	Y29	Z29	X30	Y30	Z30	X31	Y31	Z31	X32	Y32	Z32	X33	Y33	Z33	X34	Y34	Z34	X35	Y35	Z35	X36	Y36	Z36	X37	Y37	Z37	X38	Y38	Z38	X39	Y39	Z39	X40	Y40	Z40	X41	Y41	Z41	X42	Y42	Z42	X43	Y43	Z43	X44	Y44	Z44	X45	Y45	Z45	X46	Y46	Z46	X47	Y47	Z47	X48	Y48	Z48	X49	Y49	Z49	X50	Y50	Z50	X51	Y51	Z51	X52	Y52	Z52	X53	Y53	Z53	

364	3.63	2.015517473220825	1046.399291992188	95.6680908203125	105.3248672485352	1050.316772460938	26.96207618713379	51.5921745300293	1085.034423828125	62.53876876831055	186.0683898925781	1300.332397460938	279.4823913574219	38.2601432800293	1240.746337890625	24.41169548034668	78.02424621582031	1511.430786132812	71.99835968017578	175.3941345214844	1413.3125	249.21240234375	-46.36692810058594	1333.091064453125	69.24811553955078	162.2178649902344	1488.596557617188	16.01050186157227	269.0008544921875	1478.912475585938	43.20785522460938	313.5681762695312	1343.724731445312	-17.0451774597168	327.9849548339844	1125.85400390625	-4.156381607055664	240.1723785400391	1112.122802734375	4.529043674468994	367.9945678710938	894.3683471679688	105.2891845703125	348.1775817871094	872.9960327148438	16.2088794708252	344.213623046875	1015.329833984375	0.3580414056777954	360.5791931152344	711.9334106445312	131.5032958984375	359.4942932128906	804.1536254882812	35.64871215820312	391.1098937988281	816.2494506835938	100.8134307861328	-48.84616470336914	1490.871459960938	213.9086608886719	-117.9705581665039	1423.35009765625	226.4671783447266	-172.8254699707031	1133.513793945312	232.2866058349609	-81.46378326416016	1126.879516601562	192.7390899658203	-81.65836334228516	929.0208129882812	380.5258178710938	-149.7221527099609	897.9259033203125	331.2208251953125	-172.5310668945312	1062.458251953125	270.1832275390625	-35.4154052734375	747.9548950195312	413.8592224121094	-71.14796447753906	842.7348022460938	421.7796020507812	-129.4310760498047	821.8714599609375	368.7725524902344	35.83083724975586	1673.47900390625	161.2412567138672	221.1810150146484	1724.102905273438	262.6306762695312	106.475212097168	1710.87890625	317.9341735839844	154.3746337890625	1695.212036132812	97.71213531494141	259.9516906738281	989.6446533203125	42.03730773925781	-10.73430633544922	1005.09228515625	295.7634582519531	78.19042205810547	1035.568481445312	330.8157958984375	287.252197265625	1033.254028320312	179.4494171142578	341.0688781738281	493.0596313476562	105.1404724121094	332.8584289550781	641.0382080078125	91.16670989990234	75.28836822509766	224.9713134765625	-205.9240570068359	228.1197204589844	355.9293823242188	-48.62919235229492	157.1953430175781	69.70117950439453	-86.03480529785156	101.1631622314453	105.4457778930664	-74.16273498535156	139.2077941894531	133.1342163085938	-189.4766998291016	8.901876449584961	269.9524230957031	-178.0709228515625	113.3501968383789	509.20166015625	319.2049865722656	48.64318084716797	776.2601928710938	356.8075561523438	135.5121154785156	31.52122497558594	216.3969421386719	149.3077545166016	390.0182800292969	314.6752319335938	267.0199584960938	47.12121963500977	398.7598571777344	281.9850463867188	45.0465087890625	329.9818115234375	155.6641540527344	37.93215942382812	332.3861083984375	173.0050201416016	32.65950012207031	140.9157409667969	
365	3.64	6.51774787902832	1046.928955078125	101.3435897827148	110.7800750732422	1050.951538085938	34.06007766723633	56.52968978881836	1085.612426757812	69.120361328125	188.9635467529297	1301.227783203125	287.1642761230469	42.67573165893555	1241.616455078125	31.27412796020508	82.08944702148438	1512.267700195312	79.14939880371094	178.6654663085938	1414.199340820312	256.7430114746094	-42.3437385559082	1334.063598632812	75.84340667724609	166.4350891113281	1489.396850585938	23.51272583007812	273.0976867675781	1479.615966796875	51.02289581298828	317.5213012695312	1344.444702148438	-9.567634582519531	331.1837463378906	1126.361694335938	2.988880157470703	243.4668273925781	1112.97412109375	11.71471881866455	372.1785278320312	896.2686767578125	114.8562316894531	352.06787109375	873.5648803710938	26.17636299133301	347.6470336914062	1015.728637695312	8.457003593444824	367.5956115722656	714.4773559570312	143.6682891845703	364.3047180175781	805.1843872070312	46.48057174682617	396.2681579589844	818.6618041992188	111.1635131835938	-45.4997444152832	1491.755249023438	220.0992584228516	-114.5722503662109	1424.430419921875	232.9573059082031	-169.0998382568359	1134.349243164062	240.1265716552734	-77.84601593017578	1127.8681640625	200.3639984130859	-75.96250915527344	932.0873413085938	390.2927856445312	-143.8249816894531	899.850830078125	341.5801391601562	-168.4187316894531	1063.565551757812	278.6027526855469	-28.09803581237793	751.8609619140625	425.586669921875	-64.56380462646484	846.4237670898438	432.5086364746094	-122.841064453125	824.4359130859375	379.9225463867188	39.93759918212891	1674.627807617188	168.3849182128906	225.259033203125	1724.52978515625	270.3981018066406	110.3744506835938	1711.718017578125	325.3626708984375	158.8451080322266	1695.994995117188	105.2634887695312	265.4617919921875	990.9473266601562	51.12501907348633	-9.147302627563477	1004.976135253906	300.6975708007812	79.18113708496094	1036.070434570312	337.7181701660156	290.3074035644531	1034.439575195312	189.2782135009766	350.721435546875	495.1843872070312	122.3604202270508	341.3236999511719	642.8870239257812	105.9467468261719	90.99811553955078	220.5531921386719	-187.7200317382812	240.6592102050781	355.405029296875	-30.79400825500488	176.5049591064453	70.20248413085938	-64.10565948486328	119.0351486206055	103.9466705322266	-53.73377227783203	158.0069732666016	131.5733947753906	-169.0906829833984	23.03125953674316	264.175537109375	-161.2690124511719	113.4928359985352	508.718505859375	321.7564392089844	49.44175338745117	775.730224609375	361.5668334960938	135.5058898925781	31.5251350402832	216.4317779541016	149.3342590332031	389.5953063964844	316.5466003417969	267.0025634765625	46.29045486450195	399.1339416503906	282.0160522460938	44.98358917236328	330.1747436523438	155.4096069335938	37.60066986083984	332.5844421386719	172.9994506835938	32.85684967041016	140.9722747802734	
366	3.65	11.10910511016846	1047.378173828125	107.0122909545898	116.1825103759766	1051.4619140625	41.12497711181641	61.40376663208008	1086.167602539062	75.60082244873047	191.7687225341797	1302.023315429688	294.824462890625	47.06093215942383	1242.391357421875	38.06010055541992	86.12962341308594	1513.011352539062	86.23931884765625	181.8495941162109	1414.982055664062	264.248046875	-38.35103988647461	1334.944458007812	82.32756805419922	170.6499328613281	1490.110595703125	30.9856014251709	277.1658325195312	1480.212036132812	58.85149765014648	321.4925537109375	1345.102172851562	-2.097248554229736	334.5069885253906	1126.83251953125	9.978097915649414	246.8635101318359	1113.66845703125	18.80117034912109	376.8479309082031	898.2587280273438	124.3017578125	356.3008117675781	874.141357421875	36.10254669189453	351.3170471191406	1016.11572265625	16.41938972473145	374.9976196289062	717.1784057617188	155.9082641601562	369.4415588378906	806.2307739257812	57.30855941772461	401.874267578125	821.1279296875	121.4243698120117	-42.18552017211914	1492.577026367188	226.2505645751953	-111.2536163330078	1425.409423828125	239.3113555908203	-165.41845703125	1135.07666015625	247.8304290771484	-74.24843597412109	1128.745727539062	207.8819427490234	-70.36183929443359	935.0615234375	399.8829040527344	-138.0256958007812	901.7036743164062	351.7462463378906	-164.2934875488281	1064.556640625	286.9094848632812	-20.90507698059082	755.687744140625	437.0879516601562	-58.09115982055664	850.0240478515625	443.0298156738281	-116.3469543457031	826.931396484375	390.8651733398438	44.04300689697266	1675.712036132812	175.5023193359375	229.3201141357422	1724.848388671875	278.0790100097656	114.2680892944336	1712.488403320312	332.7256469726562	163.2698211669922	1696.669311523438	112.7444839477539	271.0767211914062	992.3565063476562	60.49217224121094	-7.619315147399902	1004.713806152344	305.6051940917969	80.14649963378906	1036.491943359375	344.5054321289062	293.2851867675781	1035.516479492188	199.0355682373047	359.925537109375	497.3671569824219	139.6758270263672	349.5328674316406	644.7489013671875	120.7521057128906	107.0871276855469	215.1158142089844	-168.9110717773438	253.1002502441406	354.4379272460938	-12.6395320892334	196.1409606933594	70.24417877197266	-41.25897598266602	137.2670593261719	101.853271484375	-32.45619964599609	177.180419921875	129.2732238769531	-147.8204956054688	37.49023818969727	257.2626037597656	-144.0109252929688	113.5555725097656	508.2328796386719	324.240966796875	50.19388961791992	775.1876220703125	366.2490844726562	135.5058441162109	31.52826118469238	216.4603118896484	149.3294372558594	389.189697265625	318.3641357421875	267.0053405761719	45.55175018310547	399.462158203125	282.0382995605469	44.93509292602539	330.3479309082031	155.1767120361328	37.31509399414062	332.7472229003906	173.0329895019531	33.03933715820312	141.0342102050781	
367	3.66	15.75925064086914	1047.744384765625	112.679931640625	121.5146713256836	1051.846923828125	48.16313552856445	66.19635772705078	1086.68017578125	81.99988555908203	194.4909973144531	1302.710205078125	302.4605712890625	51.41190338134766	1243.067016601562	44.77466201782227	90.15573883056641	1513.658813476562	93.27304077148438	184.9514923095703	1415.65283203125	271.7295227050781	-34.38666152954102	1335.7314453125	88.70435333251953	174.8692016601562	1490.730590820312	38.42747497558594	281.2116394042969	1480.687133789062	66.69142913818359	325.4963989257812	1345.681640625	5.395459175109863	338.00439453125	1127.261352539062	16.87320327758789	250.4134826660156	1114.185913085938	25.81284523010254	381.9679870605469	900.2960815429688	133.6338043212891	360.9044494628906	874.7239379882812	45.97378540039062	355.2696838378906	1016.491088867188	24.29140853881836	382.5954284667969	719.9623413085938	168.1483612060547	374.8733825683594	807.271484375	68.10088348388672	407.8425598144531	823.5758666992188	131.6027069091797	-38.89553833007812	1493.340576171875	232.3917541503906	-108.0082626342773	1426.27978515625	245.5375061035156	-161.7957305908203	1135.690307617188	255.3737030029297	-70.68501281738281	1129.50390625	215.2781677246094	-64.88114929199219	937.9312133789062	409.285400390625	-132.3389129638672	903.47802734375	361.6954956054688	-160.1740417480469	1065.422607421875	295.0752258300781	-13.84827709197998	759.43115234375	448.3720703125	-51.75156021118164	853.5281372070312	453.3394165039062	-109.9535064697266	829.3449096679688	401.5926513671875	48.14224624633789	1676.71875	182.5862579345703	233.3563385009766	1725.06298828125	285.6803283691406	118.1473236083984	1713.183837890625	340.0231628417969	167.6524047851562	1697.227783203125	120.1579895019531	276.8486022949219	993.9329223632812	70.26926422119141	-6.099235057830811	1004.379760742188	310.5351257324219	81.13783264160156	1036.839721679688	351.1762390136719	296.2105407714844	1036.486328125	208.6859893798828	368.6626892089844	499.5835571289062	157.088623046875	357.4670715332031	646.6053466796875	135.5813903808594	123.5599670410156	208.7200469970703	-149.4783325195312	265.4201049804688	353.0390930175781	5.832496643066406	216.0016784667969	69.89740753173828	-17.52121925354004	155.7847900390625	99.24757385253906	-10.3353214263916	196.6419372558594	126.2566833496094	-125.6744232177734	52.31108093261719	249.2877349853516	-126.2661285400391	113.5659484863281	507.7528381347656	326.6644897460938	50.95683288574219	774.6449584960938	370.8739013671875	135.5131530761719	31.53267288208008	216.4830169677734	149.3058624267578	388.7984619140625	320.1339721679688	267.0303039550781	44.91506958007812	399.7404174804688	282.0480651855469	44.89841842651367	330.5042419433594	154.9708099365234	37.07773590087891	332.8767395019531	173.1312408447266	33.19537734985352	141.1080322265625	
